<mxfile host="app.diagrams.net" modified="2022-10-02T20:07:23.149Z" agent="5.0 (Windows NT 10.0; Win64; x64) AppleWebKit/537.36 (KHTML, like Gecko) Chrome/105.0.0.0 Safari/537.36 Edg/105.0.1343.50" etag="LI3om9euwxLu9M1SKRlJ" version="20.3.7" type="github">
  <diagram id="8EEXQtD-fwenip83du1C" name="Страница 1">
    <mxGraphModel dx="1181" dy="826" grid="1" gridSize="10" guides="1" tooltips="1" connect="1" arrows="1" fold="1" page="1" pageScale="1" pageWidth="827" pageHeight="1169" math="0" shadow="0">
      <root>
        <mxCell id="0" />
        <mxCell id="1" parent="0" />
        <mxCell id="wTG3bwWTKkSvK1WjIm8S-10" style="edgeStyle=orthogonalEdgeStyle;rounded=0;orthogonalLoop=1;jettySize=auto;html=1;exitX=0.5;exitY=1;exitDx=0;exitDy=0;" edge="1" parent="1" source="wTG3bwWTKkSvK1WjIm8S-1" target="wTG3bwWTKkSvK1WjIm8S-3">
          <mxGeometry relative="1" as="geometry" />
        </mxCell>
        <mxCell id="wTG3bwWTKkSvK1WjIm8S-1" value="start" style="ellipse;whiteSpace=wrap;html=1;" vertex="1" parent="1">
          <mxGeometry x="310" y="40" width="120" height="80" as="geometry" />
        </mxCell>
        <mxCell id="wTG3bwWTKkSvK1WjIm8S-2" value="finish" style="ellipse;whiteSpace=wrap;html=1;" vertex="1" parent="1">
          <mxGeometry x="560" y="1020" width="120" height="80" as="geometry" />
        </mxCell>
        <mxCell id="wTG3bwWTKkSvK1WjIm8S-11" value="" style="edgeStyle=orthogonalEdgeStyle;rounded=0;orthogonalLoop=1;jettySize=auto;html=1;" edge="1" parent="1" source="wTG3bwWTKkSvK1WjIm8S-3" target="wTG3bwWTKkSvK1WjIm8S-4">
          <mxGeometry relative="1" as="geometry" />
        </mxCell>
        <mxCell id="wTG3bwWTKkSvK1WjIm8S-3" value="array[size]&lt;br&gt;newArray[newSize]&amp;nbsp;" style="shape=parallelogram;perimeter=parallelogramPerimeter;whiteSpace=wrap;html=1;fixedSize=1;" vertex="1" parent="1">
          <mxGeometry x="305" y="150" width="130" height="60" as="geometry" />
        </mxCell>
        <mxCell id="wTG3bwWTKkSvK1WjIm8S-32" value="" style="edgeStyle=orthogonalEdgeStyle;rounded=0;orthogonalLoop=1;jettySize=auto;html=1;" edge="1" parent="1" source="wTG3bwWTKkSvK1WjIm8S-4" target="wTG3bwWTKkSvK1WjIm8S-31">
          <mxGeometry relative="1" as="geometry" />
        </mxCell>
        <mxCell id="wTG3bwWTKkSvK1WjIm8S-4" value="i = 0&lt;br&gt;j=0&lt;br&gt;newSize = 0" style="rounded=0;whiteSpace=wrap;html=1;" vertex="1" parent="1">
          <mxGeometry x="310" y="230" width="120" height="60" as="geometry" />
        </mxCell>
        <mxCell id="wTG3bwWTKkSvK1WjIm8S-13" value="" style="edgeStyle=orthogonalEdgeStyle;rounded=0;orthogonalLoop=1;jettySize=auto;html=1;" edge="1" parent="1" source="wTG3bwWTKkSvK1WjIm8S-5" target="wTG3bwWTKkSvK1WjIm8S-6">
          <mxGeometry relative="1" as="geometry" />
        </mxCell>
        <mxCell id="wTG3bwWTKkSvK1WjIm8S-5" value="i = 0; i &amp;lt; Length; i++" style="shape=hexagon;perimeter=hexagonPerimeter2;whiteSpace=wrap;html=1;fixedSize=1;" vertex="1" parent="1">
          <mxGeometry x="295" y="650" width="150" height="80" as="geometry" />
        </mxCell>
        <mxCell id="wTG3bwWTKkSvK1WjIm8S-9" style="edgeStyle=orthogonalEdgeStyle;rounded=0;orthogonalLoop=1;jettySize=auto;html=1;exitX=1;exitY=0.5;exitDx=0;exitDy=0;entryX=1;entryY=0.5;entryDx=0;entryDy=0;" edge="1" parent="1" source="wTG3bwWTKkSvK1WjIm8S-6" target="wTG3bwWTKkSvK1WjIm8S-5">
          <mxGeometry relative="1" as="geometry">
            <Array as="points">
              <mxPoint x="490" y="800" />
              <mxPoint x="490" y="690" />
            </Array>
          </mxGeometry>
        </mxCell>
        <mxCell id="wTG3bwWTKkSvK1WjIm8S-16" value="" style="edgeStyle=orthogonalEdgeStyle;rounded=0;orthogonalLoop=1;jettySize=auto;html=1;" edge="1" parent="1" source="wTG3bwWTKkSvK1WjIm8S-6" target="wTG3bwWTKkSvK1WjIm8S-15">
          <mxGeometry relative="1" as="geometry" />
        </mxCell>
        <mxCell id="wTG3bwWTKkSvK1WjIm8S-6" value="array[i]Length &amp;lt;= 3" style="rhombus;whiteSpace=wrap;html=1;" vertex="1" parent="1">
          <mxGeometry x="310" y="760" width="120" height="80" as="geometry" />
        </mxCell>
        <mxCell id="wTG3bwWTKkSvK1WjIm8S-14" value="no" style="text;html=1;align=center;verticalAlign=middle;resizable=0;points=[];autosize=1;strokeColor=none;fillColor=none;" vertex="1" parent="1">
          <mxGeometry x="430" y="775" width="40" height="30" as="geometry" />
        </mxCell>
        <mxCell id="wTG3bwWTKkSvK1WjIm8S-21" style="edgeStyle=orthogonalEdgeStyle;rounded=0;orthogonalLoop=1;jettySize=auto;html=1;exitX=0;exitY=0.5;exitDx=0;exitDy=0;entryX=0.5;entryY=1;entryDx=0;entryDy=0;" edge="1" parent="1" source="wTG3bwWTKkSvK1WjIm8S-15" target="wTG3bwWTKkSvK1WjIm8S-18">
          <mxGeometry relative="1" as="geometry" />
        </mxCell>
        <mxCell id="wTG3bwWTKkSvK1WjIm8S-15" value="newArray[j] = array[i]" style="rounded=0;whiteSpace=wrap;html=1;" vertex="1" parent="1">
          <mxGeometry x="280" y="880" width="180" height="60" as="geometry" />
        </mxCell>
        <mxCell id="wTG3bwWTKkSvK1WjIm8S-17" value="yes" style="text;html=1;align=center;verticalAlign=middle;resizable=0;points=[];autosize=1;strokeColor=none;fillColor=none;" vertex="1" parent="1">
          <mxGeometry x="360" y="845" width="40" height="30" as="geometry" />
        </mxCell>
        <mxCell id="wTG3bwWTKkSvK1WjIm8S-22" style="edgeStyle=orthogonalEdgeStyle;rounded=0;orthogonalLoop=1;jettySize=auto;html=1;exitX=0.5;exitY=0;exitDx=0;exitDy=0;entryX=0;entryY=0.5;entryDx=0;entryDy=0;" edge="1" parent="1" source="wTG3bwWTKkSvK1WjIm8S-18" target="wTG3bwWTKkSvK1WjIm8S-5">
          <mxGeometry relative="1" as="geometry" />
        </mxCell>
        <mxCell id="wTG3bwWTKkSvK1WjIm8S-18" value="j++" style="rounded=0;whiteSpace=wrap;html=1;" vertex="1" parent="1">
          <mxGeometry x="110" y="785" width="120" height="60" as="geometry" />
        </mxCell>
        <mxCell id="wTG3bwWTKkSvK1WjIm8S-23" value="yes" style="text;html=1;align=center;verticalAlign=middle;resizable=0;points=[];autosize=1;strokeColor=none;fillColor=none;" vertex="1" parent="1">
          <mxGeometry x="360" y="725" width="40" height="30" as="geometry" />
        </mxCell>
        <mxCell id="wTG3bwWTKkSvK1WjIm8S-25" value="no" style="text;html=1;align=center;verticalAlign=middle;resizable=0;points=[];autosize=1;strokeColor=none;fillColor=none;" vertex="1" parent="1">
          <mxGeometry x="510" y="665" width="40" height="30" as="geometry" />
        </mxCell>
        <mxCell id="wTG3bwWTKkSvK1WjIm8S-30" value="" style="edgeStyle=orthogonalEdgeStyle;rounded=0;orthogonalLoop=1;jettySize=auto;html=1;" edge="1" parent="1" source="wTG3bwWTKkSvK1WjIm8S-26" target="wTG3bwWTKkSvK1WjIm8S-2">
          <mxGeometry relative="1" as="geometry" />
        </mxCell>
        <mxCell id="wTG3bwWTKkSvK1WjIm8S-26" value="newArray[newSize]" style="shape=parallelogram;perimeter=parallelogramPerimeter;whiteSpace=wrap;html=1;fixedSize=1;" vertex="1" parent="1">
          <mxGeometry x="550" y="880" width="140" height="60" as="geometry" />
        </mxCell>
        <mxCell id="wTG3bwWTKkSvK1WjIm8S-27" value="" style="edgeStyle=orthogonalEdgeStyle;rounded=0;orthogonalLoop=1;jettySize=auto;html=1;exitX=1;exitY=0.5;exitDx=0;exitDy=0;entryX=0.5;entryY=0;entryDx=0;entryDy=0;endArrow=none;" edge="1" parent="1" source="wTG3bwWTKkSvK1WjIm8S-5" target="wTG3bwWTKkSvK1WjIm8S-26">
          <mxGeometry relative="1" as="geometry">
            <mxPoint x="445" y="690" as="sourcePoint" />
            <mxPoint x="430" y="1100" as="targetPoint" />
            <Array as="points">
              <mxPoint x="620" y="690" />
            </Array>
          </mxGeometry>
        </mxCell>
        <mxCell id="wTG3bwWTKkSvK1WjIm8S-34" style="edgeStyle=orthogonalEdgeStyle;rounded=0;orthogonalLoop=1;jettySize=auto;html=1;exitX=0.5;exitY=1;exitDx=0;exitDy=0;entryX=0.5;entryY=0;entryDx=0;entryDy=0;" edge="1" parent="1" source="wTG3bwWTKkSvK1WjIm8S-31" target="wTG3bwWTKkSvK1WjIm8S-33">
          <mxGeometry relative="1" as="geometry" />
        </mxCell>
        <mxCell id="wTG3bwWTKkSvK1WjIm8S-41" style="edgeStyle=orthogonalEdgeStyle;rounded=0;orthogonalLoop=1;jettySize=auto;html=1;exitX=1;exitY=0.5;exitDx=0;exitDy=0;entryX=0.5;entryY=0;entryDx=0;entryDy=0;" edge="1" parent="1" source="wTG3bwWTKkSvK1WjIm8S-31" target="wTG3bwWTKkSvK1WjIm8S-5">
          <mxGeometry relative="1" as="geometry">
            <mxPoint x="450" y="630" as="targetPoint" />
            <Array as="points">
              <mxPoint x="490" y="370" />
              <mxPoint x="490" y="650" />
            </Array>
          </mxGeometry>
        </mxCell>
        <mxCell id="wTG3bwWTKkSvK1WjIm8S-31" value="i = 0; i &amp;lt; Length; i++" style="shape=hexagon;perimeter=hexagonPerimeter2;whiteSpace=wrap;html=1;fixedSize=1;" vertex="1" parent="1">
          <mxGeometry x="295" y="330" width="150" height="80" as="geometry" />
        </mxCell>
        <mxCell id="wTG3bwWTKkSvK1WjIm8S-36" value="" style="edgeStyle=orthogonalEdgeStyle;rounded=0;orthogonalLoop=1;jettySize=auto;html=1;" edge="1" parent="1" source="wTG3bwWTKkSvK1WjIm8S-33" target="wTG3bwWTKkSvK1WjIm8S-35">
          <mxGeometry relative="1" as="geometry" />
        </mxCell>
        <mxCell id="wTG3bwWTKkSvK1WjIm8S-38" style="edgeStyle=orthogonalEdgeStyle;rounded=0;orthogonalLoop=1;jettySize=auto;html=1;exitX=1;exitY=0.5;exitDx=0;exitDy=0;entryX=1;entryY=0.5;entryDx=0;entryDy=0;" edge="1" parent="1" source="wTG3bwWTKkSvK1WjIm8S-33" target="wTG3bwWTKkSvK1WjIm8S-31">
          <mxGeometry relative="1" as="geometry" />
        </mxCell>
        <mxCell id="wTG3bwWTKkSvK1WjIm8S-33" value="array[i]Length &amp;lt;= 3" style="rhombus;whiteSpace=wrap;html=1;" vertex="1" parent="1">
          <mxGeometry x="310" y="430" width="120" height="80" as="geometry" />
        </mxCell>
        <mxCell id="wTG3bwWTKkSvK1WjIm8S-40" style="edgeStyle=orthogonalEdgeStyle;rounded=0;orthogonalLoop=1;jettySize=auto;html=1;exitX=0;exitY=0.5;exitDx=0;exitDy=0;entryX=0;entryY=0.5;entryDx=0;entryDy=0;" edge="1" parent="1" source="wTG3bwWTKkSvK1WjIm8S-35" target="wTG3bwWTKkSvK1WjIm8S-31">
          <mxGeometry relative="1" as="geometry" />
        </mxCell>
        <mxCell id="wTG3bwWTKkSvK1WjIm8S-35" value="newSize++" style="rounded=0;whiteSpace=wrap;html=1;" vertex="1" parent="1">
          <mxGeometry x="310" y="540" width="120" height="60" as="geometry" />
        </mxCell>
        <mxCell id="wTG3bwWTKkSvK1WjIm8S-37" value="yes" style="text;html=1;align=center;verticalAlign=middle;resizable=0;points=[];autosize=1;strokeColor=none;fillColor=none;" vertex="1" parent="1">
          <mxGeometry x="360" y="505" width="40" height="30" as="geometry" />
        </mxCell>
        <mxCell id="wTG3bwWTKkSvK1WjIm8S-39" value="no" style="text;html=1;align=center;verticalAlign=middle;resizable=0;points=[];autosize=1;strokeColor=none;fillColor=none;" vertex="1" parent="1">
          <mxGeometry x="420" y="445" width="40" height="30" as="geometry" />
        </mxCell>
      </root>
    </mxGraphModel>
  </diagram>
</mxfile>
